<svg width="760" height="1004" viewBox="0 0 760 1004" xmlns="http://www.w3.org/2000/svg">
  <rect width="760" height="1004" fill="#0d1117" rx="6"/>
  <text x="380" y="42" fill="#e6edf3" font-family="-apple-system,Segoe UI,Helvetica,Arial,sans-serif" font-size="20" font-weight="600" text-anchor="middle">&#9660; Languages from star lists</text>
  <circle cx="41.8" cy="68" r="1.7999999999999998" fill="#8b949e"/><rect x="47.2" y="66.8" width="12" height="2.4" rx="1" fill="#8b949e"/><circle cx="41.8" cy="74" r="1.7999999999999998" fill="#8b949e"/><rect x="47.2" y="72.8" width="12" height="2.4" rx="1" fill="#8b949e"/><circle cx="41.8" cy="80" r="1.7999999999999998" fill="#8b949e"/><rect x="47.2" y="78.8" width="12" height="2.4" rx="1" fill="#8b949e"/>
  <text x="68" y="80" fill="#58a6ff" font-family="-apple-system,Segoe UI,Helvetica,Arial,sans-serif" font-size="15" font-weight="600">6 Star lists</text>
  <circle cx="57.5" cy="105" r="1.5" fill="#8b949e"/><rect x="62" y="104" width="10" height="2" rx="1" fill="#8b949e"/><circle cx="57.5" cy="110" r="1.5" fill="#8b949e"/><rect x="62" y="109" width="10" height="2" rx="1" fill="#8b949e"/><circle cx="57.5" cy="115" r="1.5" fill="#8b949e"/><rect x="62" y="114" width="10" height="2" rx="1" fill="#8b949e"/>
  <text x="78" y="116" fill="#58a6ff" font-family="-apple-system,Segoe UI,Helvetica,Arial,sans-serif" font-size="15" font-weight="600">Agent skills &amp; frameworks</text>
  <text x="78" y="136" fill="#8b949e" font-family="-apple-system,Segoe UI,Helvetica,Arial,sans-serif" font-size="12">11 repositories</text>
  <clipPath id="bar-Agent-skills--amp--frameworks"><rect x="78" y="158" width="604" height="8" rx="4"/></clipPath><g clip-path="url(#bar-Agent-skills--amp--frameworks)"><rect x="78.00" y="158" width="219.64" height="8" fill="#3178c6"/><rect x="297.64" y="158" width="109.82" height="8" fill="#f1e05a"/><rect x="407.45" y="158" width="54.91" height="8" fill="#e34c26"/><rect x="462.36" y="158" width="54.91" height="8" fill="#3572A5"/><rect x="517.27" y="158" width="54.91" height="8" fill="#dea584"/><rect x="572.18" y="158" width="54.91" height="8" fill="#89e051"/><rect x="627.09" y="158" width="54.91" height="8" fill="#30363d"/></g>
  <circle cx="83" cy="184" r="5" fill="#3178c6"/>
  <text x="96" y="188" fill="#c9d1d9" font-family="-apple-system,Segoe UI,Helvetica,Arial,sans-serif" font-size="13">TypeScript</text>
  <text x="208" y="188" fill="#8b949e" font-family="-apple-system,Segoe UI,Helvetica,Arial,sans-serif" font-size="12">36.36%</text>
  <text x="360" y="188" fill="#8b949e" font-family="-apple-system,Segoe UI,Helvetica,Arial,sans-serif" font-size="12" text-anchor="end">4★</text>
  <circle cx="395" cy="184" r="5" fill="#f1e05a"/>
  <text x="408" y="188" fill="#c9d1d9" font-family="-apple-system,Segoe UI,Helvetica,Arial,sans-serif" font-size="13">JavaScript</text>
  <text x="520" y="188" fill="#8b949e" font-family="-apple-system,Segoe UI,Helvetica,Arial,sans-serif" font-size="12">18.18%</text>
  <text x="672" y="188" fill="#8b949e" font-family="-apple-system,Segoe UI,Helvetica,Arial,sans-serif" font-size="12" text-anchor="end">2★</text>
  <circle cx="83" cy="210" r="5" fill="#e34c26"/>
  <text x="96" y="214" fill="#c9d1d9" font-family="-apple-system,Segoe UI,Helvetica,Arial,sans-serif" font-size="13">HTML</text>
  <text x="208" y="214" fill="#8b949e" font-family="-apple-system,Segoe UI,Helvetica,Arial,sans-serif" font-size="12">9.09%</text>
  <text x="360" y="214" fill="#8b949e" font-family="-apple-system,Segoe UI,Helvetica,Arial,sans-serif" font-size="12" text-anchor="end">1★</text>
  <circle cx="395" cy="210" r="5" fill="#3572A5"/>
  <text x="408" y="214" fill="#c9d1d9" font-family="-apple-system,Segoe UI,Helvetica,Arial,sans-serif" font-size="13">Python</text>
  <text x="520" y="214" fill="#8b949e" font-family="-apple-system,Segoe UI,Helvetica,Arial,sans-serif" font-size="12">9.09%</text>
  <text x="672" y="214" fill="#8b949e" font-family="-apple-system,Segoe UI,Helvetica,Arial,sans-serif" font-size="12" text-anchor="end">1★</text>
  <circle cx="83" cy="236" r="5" fill="#dea584"/>
  <text x="96" y="240" fill="#c9d1d9" font-family="-apple-system,Segoe UI,Helvetica,Arial,sans-serif" font-size="13">Rust</text>
  <text x="208" y="240" fill="#8b949e" font-family="-apple-system,Segoe UI,Helvetica,Arial,sans-serif" font-size="12">9.09%</text>
  <text x="360" y="240" fill="#8b949e" font-family="-apple-system,Segoe UI,Helvetica,Arial,sans-serif" font-size="12" text-anchor="end">1★</text>
  <circle cx="395" cy="236" r="5" fill="#89e051"/>
  <text x="408" y="240" fill="#c9d1d9" font-family="-apple-system,Segoe UI,Helvetica,Arial,sans-serif" font-size="13">Shell</text>
  <text x="520" y="240" fill="#8b949e" font-family="-apple-system,Segoe UI,Helvetica,Arial,sans-serif" font-size="12">9.09%</text>
  <text x="672" y="240" fill="#8b949e" font-family="-apple-system,Segoe UI,Helvetica,Arial,sans-serif" font-size="12" text-anchor="end">1★</text>
  <circle cx="57.5" cy="267" r="1.5" fill="#8b949e"/><rect x="62" y="266" width="10" height="2" rx="1" fill="#8b949e"/><circle cx="57.5" cy="272" r="1.5" fill="#8b949e"/><rect x="62" y="271" width="10" height="2" rx="1" fill="#8b949e"/><circle cx="57.5" cy="277" r="1.5" fill="#8b949e"/><rect x="62" y="276" width="10" height="2" rx="1" fill="#8b949e"/>
  <text x="78" y="278" fill="#58a6ff" font-family="-apple-system,Segoe UI,Helvetica,Arial,sans-serif" font-size="15" font-weight="600">AI tooling &amp; MCP</text>
  <text x="78" y="298" fill="#8b949e" font-family="-apple-system,Segoe UI,Helvetica,Arial,sans-serif" font-size="12">7 repositories</text>
  <text x="78" y="316" fill="#8b949e" font-family="-apple-system,Segoe UI,Helvetica,Arial,sans-serif" font-size="12">MCP servers, agent utilities, and things that plug into your workflow</text>
  <clipPath id="bar-AI-tooling--amp--MCP"><rect x="78" y="338" width="604" height="8" rx="4"/></clipPath><g clip-path="url(#bar-AI-tooling--amp--MCP)"><rect x="78.00" y="338" width="431.43" height="8" fill="#3178c6"/><rect x="509.43" y="338" width="86.29" height="8" fill="#555555"/><rect x="595.71" y="338" width="86.29" height="8" fill="#F05138"/></g>
  <circle cx="83" cy="364" r="5" fill="#3178c6"/>
  <text x="96" y="368" fill="#c9d1d9" font-family="-apple-system,Segoe UI,Helvetica,Arial,sans-serif" font-size="13">TypeScript</text>
  <text x="208" y="368" fill="#8b949e" font-family="-apple-system,Segoe UI,Helvetica,Arial,sans-serif" font-size="12">71.43%</text>
  <text x="360" y="368" fill="#8b949e" font-family="-apple-system,Segoe UI,Helvetica,Arial,sans-serif" font-size="12" text-anchor="end">5★</text>
  <circle cx="395" cy="364" r="5" fill="#555555"/>
  <text x="408" y="368" fill="#c9d1d9" font-family="-apple-system,Segoe UI,Helvetica,Arial,sans-serif" font-size="13">C</text>
  <text x="520" y="368" fill="#8b949e" font-family="-apple-system,Segoe UI,Helvetica,Arial,sans-serif" font-size="12">14.29%</text>
  <text x="672" y="368" fill="#8b949e" font-family="-apple-system,Segoe UI,Helvetica,Arial,sans-serif" font-size="12" text-anchor="end">1★</text>
  <circle cx="83" cy="390" r="5" fill="#F05138"/>
  <text x="96" y="394" fill="#c9d1d9" font-family="-apple-system,Segoe UI,Helvetica,Arial,sans-serif" font-size="13">Swift</text>
  <text x="208" y="394" fill="#8b949e" font-family="-apple-system,Segoe UI,Helvetica,Arial,sans-serif" font-size="12">14.29%</text>
  <text x="360" y="394" fill="#8b949e" font-family="-apple-system,Segoe UI,Helvetica,Arial,sans-serif" font-size="12" text-anchor="end">1★</text>
  <circle cx="57.5" cy="421" r="1.5" fill="#8b949e"/><rect x="62" y="420" width="10" height="2" rx="1" fill="#8b949e"/><circle cx="57.5" cy="426" r="1.5" fill="#8b949e"/><rect x="62" y="425" width="10" height="2" rx="1" fill="#8b949e"/><circle cx="57.5" cy="431" r="1.5" fill="#8b949e"/><rect x="62" y="430" width="10" height="2" rx="1" fill="#8b949e"/>
  <text x="78" y="432" fill="#58a6ff" font-family="-apple-system,Segoe UI,Helvetica,Arial,sans-serif" font-size="15" font-weight="600">Foundations &amp; reference</text>
  <text x="78" y="452" fill="#8b949e" font-family="-apple-system,Segoe UI,Helvetica,Arial,sans-serif" font-size="12">5 repositories</text>
  <text x="78" y="470" fill="#8b949e" font-family="-apple-system,Segoe UI,Helvetica,Arial,sans-serif" font-size="12">big projects and stuff you starred to study, not to install</text>
  <clipPath id="bar-Foundations--amp--reference"><rect x="78" y="492" width="604" height="8" rx="4"/></clipPath><g clip-path="url(#bar-Foundations--amp--reference)"><rect x="78.00" y="492" width="241.60" height="8" fill="#f1e05a"/><rect x="319.60" y="492" width="120.80" height="8" fill="#555555"/><rect x="440.40" y="492" width="120.80" height="8" fill="#dea584"/><rect x="561.20" y="492" width="120.80" height="8" fill="#c22d40"/></g>
  <circle cx="83" cy="518" r="5" fill="#f1e05a"/>
  <text x="96" y="522" fill="#c9d1d9" font-family="-apple-system,Segoe UI,Helvetica,Arial,sans-serif" font-size="13">JavaScript</text>
  <text x="208" y="522" fill="#8b949e" font-family="-apple-system,Segoe UI,Helvetica,Arial,sans-serif" font-size="12">40%</text>
  <text x="360" y="522" fill="#8b949e" font-family="-apple-system,Segoe UI,Helvetica,Arial,sans-serif" font-size="12" text-anchor="end">2★</text>
  <circle cx="395" cy="518" r="5" fill="#555555"/>
  <text x="408" y="522" fill="#c9d1d9" font-family="-apple-system,Segoe UI,Helvetica,Arial,sans-serif" font-size="13">C</text>
  <text x="520" y="522" fill="#8b949e" font-family="-apple-system,Segoe UI,Helvetica,Arial,sans-serif" font-size="12">20%</text>
  <text x="672" y="522" fill="#8b949e" font-family="-apple-system,Segoe UI,Helvetica,Arial,sans-serif" font-size="12" text-anchor="end">1★</text>
  <circle cx="83" cy="544" r="5" fill="#dea584"/>
  <text x="96" y="548" fill="#c9d1d9" font-family="-apple-system,Segoe UI,Helvetica,Arial,sans-serif" font-size="13">Rust</text>
  <text x="208" y="548" fill="#8b949e" font-family="-apple-system,Segoe UI,Helvetica,Arial,sans-serif" font-size="12">20%</text>
  <text x="360" y="548" fill="#8b949e" font-family="-apple-system,Segoe UI,Helvetica,Arial,sans-serif" font-size="12" text-anchor="end">1★</text>
  <circle cx="395" cy="544" r="5" fill="#c22d40"/>
  <text x="408" y="548" fill="#c9d1d9" font-family="-apple-system,Segoe UI,Helvetica,Arial,sans-serif" font-size="13">Scala</text>
  <text x="520" y="548" fill="#8b949e" font-family="-apple-system,Segoe UI,Helvetica,Arial,sans-serif" font-size="12">20%</text>
  <text x="672" y="548" fill="#8b949e" font-family="-apple-system,Segoe UI,Helvetica,Arial,sans-serif" font-size="12" text-anchor="end">1★</text>
  <circle cx="57.5" cy="575" r="1.5" fill="#8b949e"/><rect x="62" y="574" width="10" height="2" rx="1" fill="#8b949e"/><circle cx="57.5" cy="580" r="1.5" fill="#8b949e"/><rect x="62" y="579" width="10" height="2" rx="1" fill="#8b949e"/><circle cx="57.5" cy="585" r="1.5" fill="#8b949e"/><rect x="62" y="584" width="10" height="2" rx="1" fill="#8b949e"/>
  <text x="78" y="586" fill="#58a6ff" font-family="-apple-system,Segoe UI,Helvetica,Arial,sans-serif" font-size="15" font-weight="600">Backend &amp; devtools</text>
  <text x="78" y="606" fill="#8b949e" font-family="-apple-system,Segoe UI,Helvetica,Arial,sans-serif" font-size="12">5 repositories</text>
  <text x="78" y="624" fill="#8b949e" font-family="-apple-system,Segoe UI,Helvetica,Arial,sans-serif" font-size="12">the plumbing for actually shipping apps</text>
  <clipPath id="bar-Backend--amp--devtools"><rect x="78" y="646" width="604" height="8" rx="4"/></clipPath><g clip-path="url(#bar-Backend--amp--devtools)"><rect x="78.00" y="646" width="362.40" height="8" fill="#3178c6"/><rect x="440.40" y="646" width="120.80" height="8" fill="#dea584"/><rect x="561.20" y="646" width="120.80" height="8" fill="#F05138"/></g>
  <circle cx="83" cy="672" r="5" fill="#3178c6"/>
  <text x="96" y="676" fill="#c9d1d9" font-family="-apple-system,Segoe UI,Helvetica,Arial,sans-serif" font-size="13">TypeScript</text>
  <text x="208" y="676" fill="#8b949e" font-family="-apple-system,Segoe UI,Helvetica,Arial,sans-serif" font-size="12">60%</text>
  <text x="360" y="676" fill="#8b949e" font-family="-apple-system,Segoe UI,Helvetica,Arial,sans-serif" font-size="12" text-anchor="end">3★</text>
  <circle cx="395" cy="672" r="5" fill="#dea584"/>
  <text x="408" y="676" fill="#c9d1d9" font-family="-apple-system,Segoe UI,Helvetica,Arial,sans-serif" font-size="13">Rust</text>
  <text x="520" y="676" fill="#8b949e" font-family="-apple-system,Segoe UI,Helvetica,Arial,sans-serif" font-size="12">20%</text>
  <text x="672" y="676" fill="#8b949e" font-family="-apple-system,Segoe UI,Helvetica,Arial,sans-serif" font-size="12" text-anchor="end">1★</text>
  <circle cx="83" cy="698" r="5" fill="#F05138"/>
  <text x="96" y="702" fill="#c9d1d9" font-family="-apple-system,Segoe UI,Helvetica,Arial,sans-serif" font-size="13">Swift</text>
  <text x="208" y="702" fill="#8b949e" font-family="-apple-system,Segoe UI,Helvetica,Arial,sans-serif" font-size="12">20%</text>
  <text x="360" y="702" fill="#8b949e" font-family="-apple-system,Segoe UI,Helvetica,Arial,sans-serif" font-size="12" text-anchor="end">1★</text>
  <circle cx="57.5" cy="729" r="1.5" fill="#8b949e"/><rect x="62" y="728" width="10" height="2" rx="1" fill="#8b949e"/><circle cx="57.5" cy="734" r="1.5" fill="#8b949e"/><rect x="62" y="733" width="10" height="2" rx="1" fill="#8b949e"/><circle cx="57.5" cy="739" r="1.5" fill="#8b949e"/><rect x="62" y="738" width="10" height="2" rx="1" fill="#8b949e"/>
  <text x="78" y="740" fill="#58a6ff" font-family="-apple-system,Segoe UI,Helvetica,Arial,sans-serif" font-size="15" font-weight="600">Local AI</text>
  <text x="78" y="760" fill="#8b949e" font-family="-apple-system,Segoe UI,Helvetica,Arial,sans-serif" font-size="12">4 repositories</text>
  <text x="78" y="778" fill="#8b949e" font-family="-apple-system,Segoe UI,Helvetica,Arial,sans-serif" font-size="12">running and building models on your own hardware</text>
  <clipPath id="bar-Local-AI"><rect x="78" y="800" width="604" height="8" rx="4"/></clipPath><g clip-path="url(#bar-Local-AI)"><rect x="78.00" y="800" width="453.00" height="8" fill="#3572A5"/><rect x="531.00" y="800" width="151.00" height="8" fill="#00ADD8"/></g>
  <circle cx="83" cy="826" r="5" fill="#3572A5"/>
  <text x="96" y="830" fill="#c9d1d9" font-family="-apple-system,Segoe UI,Helvetica,Arial,sans-serif" font-size="13">Python</text>
  <text x="208" y="830" fill="#8b949e" font-family="-apple-system,Segoe UI,Helvetica,Arial,sans-serif" font-size="12">75%</text>
  <text x="360" y="830" fill="#8b949e" font-family="-apple-system,Segoe UI,Helvetica,Arial,sans-serif" font-size="12" text-anchor="end">3★</text>
  <circle cx="395" cy="826" r="5" fill="#00ADD8"/>
  <text x="408" y="830" fill="#c9d1d9" font-family="-apple-system,Segoe UI,Helvetica,Arial,sans-serif" font-size="13">Go</text>
  <text x="520" y="830" fill="#8b949e" font-family="-apple-system,Segoe UI,Helvetica,Arial,sans-serif" font-size="12">25%</text>
  <text x="672" y="830" fill="#8b949e" font-family="-apple-system,Segoe UI,Helvetica,Arial,sans-serif" font-size="12" text-anchor="end">1★</text>
  <circle cx="57.5" cy="857" r="1.5" fill="#8b949e"/><rect x="62" y="856" width="10" height="2" rx="1" fill="#8b949e"/><circle cx="57.5" cy="862" r="1.5" fill="#8b949e"/><rect x="62" y="861" width="10" height="2" rx="1" fill="#8b949e"/><circle cx="57.5" cy="867" r="1.5" fill="#8b949e"/><rect x="62" y="866" width="10" height="2" rx="1" fill="#8b949e"/>
  <text x="78" y="868" fill="#58a6ff" font-family="-apple-system,Segoe UI,Helvetica,Arial,sans-serif" font-size="15" font-weight="600">Formal math &amp; academia</text>
  <text x="78" y="888" fill="#8b949e" font-family="-apple-system,Segoe UI,Helvetica,Arial,sans-serif" font-size="12">3 repositories</text>
  <text x="78" y="906" fill="#8b949e" font-family="-apple-system,Segoe UI,Helvetica,Arial,sans-serif" font-size="12">theorem proving and research, the ProofX world</text>
  <clipPath id="bar-Formal-math--amp--academia"><rect x="78" y="928" width="604" height="8" rx="4"/></clipPath><g clip-path="url(#bar-Formal-math--amp--academia)"><rect x="78.00" y="928" width="402.67" height="8" fill="#3572A5"/><rect x="480.67" y="928" width="201.33" height="8" fill="#e34c26"/></g>
  <circle cx="83" cy="954" r="5" fill="#3572A5"/>
  <text x="96" y="958" fill="#c9d1d9" font-family="-apple-system,Segoe UI,Helvetica,Arial,sans-serif" font-size="13">Python</text>
  <text x="208" y="958" fill="#8b949e" font-family="-apple-system,Segoe UI,Helvetica,Arial,sans-serif" font-size="12">66.67%</text>
  <text x="360" y="958" fill="#8b949e" font-family="-apple-system,Segoe UI,Helvetica,Arial,sans-serif" font-size="12" text-anchor="end">2★</text>
  <circle cx="395" cy="954" r="5" fill="#e34c26"/>
  <text x="408" y="958" fill="#c9d1d9" font-family="-apple-system,Segoe UI,Helvetica,Arial,sans-serif" font-size="13">HTML</text>
  <text x="520" y="958" fill="#8b949e" font-family="-apple-system,Segoe UI,Helvetica,Arial,sans-serif" font-size="12">33.33%</text>
  <text x="672" y="958" fill="#8b949e" font-family="-apple-system,Segoe UI,Helvetica,Arial,sans-serif" font-size="12" text-anchor="end">1★</text>
</svg>